# xmcd
#
# Track frame offsets: 
#        150
#        1833
#        20306
#        22242
#        40705
#        41671
#        63713
#        65154
#        80702
#        82113
#        103043
#        104126
#        121873
#        122767
#        145449
#        146929
#        164128
#        165176
#        182723
#        183306
#        215127
#        215756
#        244483
#        245212
#
# Disc length: 3566 seconds
#
# Revision: 0
# Processed by: cddbd v1.5.2PL0 Copyright (c) Steve Scherf et al.
# Submitted via: ExactAudioCopy v1.1
#
DISCID=7d0dec18
DTITLE=KSW4BLUES - Kundel
DYEAR=2016
DGENRE=Blues
TTITLE0=Zaszczuty - wstęp
TTITLE1=Zaszczuty
TTITLE2=Droga- wstęp
TTITLE3=Droga
TTITLE4=Wicher- wstęp
TTITLE5=Wicher
TTITLE6=Robotnicza- wstęp
TTITLE7=Robotnicza
TTITLE8=Kundel- wstęp
TTITLE9=Kundel
TTITLE10=Synek- wstęp
TTITLE11=Synek
TTITLE12=Nic na siłę- wstęp
TTITLE13=Nic na siłę
TTITLE14=Ptaki niebieskie i lilie polne- wstęp
TTITLE15=Ptaki niebieskie i lilie polne
TTITLE16=Samotność włóczęgi o świcie- wstęp
TTITLE17=Samotność włóczęgi o świcie
TTITLE18=Włos- wstęp
TTITLE19=Włos
TTITLE20=Dzieci- wstęp
TTITLE21=Dzieci
TTITLE22=Dziękować- wstęp
TTITLE23=Dziękować
EXTD=
EXTT0=
EXTT1=
EXTT2=
EXTT3=
EXTT4=
EXTT5=
EXTT6=
EXTT7=
EXTT8=
EXTT9=
EXTT10=
EXTT11=
EXTT12=
EXTT13=
EXTT14=
EXTT15=
EXTT16=
EXTT17=
EXTT18=
EXTT19=
EXTT20=
EXTT21=
EXTT22=
EXTT23=
PLAYORDER=
